<svg class="icon" viewBox="0 0 1026 1024" xmlns="http://www.w3.org/2000/svg" width="30.059" height="30"><defs><style/></defs><path d="M554.802 725.056c.854.088 3.845-1.529 8.33-4.249a242.296 242.296 0 01-46.942 4.907c12.783.075 25.55-.12 38.612-.658zm-68.006 0c7.727.317 15.35.487 22.955.596a242.488 242.488 0 01-26.254-1.916c1.68.895 2.816 1.37 3.299 1.32z" fill="#F7B970"/><path d="M514.307.47C231.65.47 2.483 229.522 2.483 512.296c0 174.1 86.961 327.83 219.795 420.257 25.8-89.852 90.845-157.588 179.389-188.76-22.893-35.164-31.107-55.07-30.074-64.853a242.209 242.209 0 01-51.557-51.612c-251.026-28.657-36.233-533.03 194.508-411.74 52.366-27.536 103.632-23.009 148.787.797 18.615-21.38 42-37.417 47.796-21.577l17.24 47.226 16.574 45.101c.609.77 1.208 1.541 1.808 2.316l48.446 9.018 49.354 9.093c25.453 4.757-16.24 62.848-43.97 78.577 41.667 110.228 26.68 229.825-92.238 241.513a242.213 242.213 0 01-42.577 44.518c9.372 4.715 4.715 25.288-28.453 75.449 83.297 32.652 144.338 98.496 169.184 184.82 132.742-92.44 219.633-246.12 219.633-420.148-.004-282.77-229.171-511.82-511.82-511.82z" fill="#F7B970"/><path d="M483.497 723.735a242.334 242.334 0 0026.254 1.917c2.15.03 4.298.054 6.443.066a242.005 242.005 0 0046.942-4.906c23.043-13.98 85.7-57.164 102.628-48.638a242.084 242.084 0 0042.577-44.518 189.518 189.518 0 01-16.927.937c34.83-50.532 52.419-112.753 42.031-194.104l-216.535 1.062h-2.595v-.013l-215.83-1.05c-10.392 81.348 7.202 143.573 42.032 194.106a202.839 202.839 0 01-20.477-1.267 242.5 242.5 0 0051.558 51.612c3.165-29.977 92.814 34.633 111.9 44.797z" fill="#FCE9EA"/><path d="M637.307 747.624c-.233.354-.441.687-.683 1.045l-115.828-.116-115.942.116c-1.113-1.67-2.141-3.265-3.191-4.877-88.545 31.172-153.59 98.908-179.389 188.76C305.1 990.187 405.744 1024 514.304 1024c108.624 0 209.332-33.86 292.183-91.556-24.843-86.321-85.885-152.17-169.18-184.82z" fill="#A4CC2D"/><path d="M520.797 748.553l115.827.116c.242-.358.45-.691.683-1.045 33.168-50.162 37.824-70.735 28.452-75.449-16.922-8.527-79.58 34.655-102.627 48.637-4.485 2.715-7.476 4.336-8.33 4.248a818.528 818.528 0 01-45.055.592 823.681 823.681 0 01-22.955-.596c-.48.05-1.62-.429-3.3-1.32-19.085-10.16-108.733-74.774-111.903-44.797-1.033 9.788 7.181 29.69 30.074 64.853 1.045 1.612 2.078 3.207 3.19 4.877l115.944-.116z" fill="#CFE07D"/><path d="M663.086 216.664l.24-.27c-45.154-23.81-96.416-28.338-148.786-.796 52.083-27.388 103.311-22.78 148.545 1.066zm83.492 72.762l.163.03a201.823 201.823 0 00-1.808-2.317l.133.363 1.512 1.924zM697.812 628.42z" fill="#FF9182"/><path d="M298.477 434.49l215.83 1.05V215.471l.237.116c-230.74-121.29-445.538 383.083-194.51 411.74a202.764 202.764 0 0020.476 1.265c-34.83-50.532-52.424-112.753-42.032-194.104z" fill="#FF9182"/><path d="M514.307 435.538v.013h2.595l216.535-1.062c10.388 81.347-7.202 143.572-42.032 194.104a189.518 189.518 0 0016.927-.937c118.918-11.688 133.9-131.284 92.24-241.513-9.438 5.356-17.265 5.819-20.26-2.424l-17.357-47.226-17.24-47.225-49.47-9.21-49.47-9.21c-17.403-3.264-3.24-31.626 16.31-54.184-45.234-23.842-96.462-28.454-148.545-1.07l-.237-.117v220.061zM745.07 287.501l.646 1.763.862.162-1.508-1.924z" fill="#FF7866"/><path d="M745.716 289.268l17.24 47.225 17.356 47.226c3 8.243 10.826 7.78 20.26 2.424 27.724-15.728 69.422-73.82 43.969-78.577l-49.354-9.093-48.446-9.018-.163-.029-.862-.158zm-98.941-18.419l49.47 9.21 49.47 9.21-.645-1.763-.133-.363-16.574-45.101-17.24-47.225c-5.797-15.84-29.181.195-47.796 21.576l-.242.27c-19.551 22.56-33.709 50.92-16.31 54.186z" fill="#CFE07D"/></svg>