<svg class="icon" viewBox="0 0 1024 1024" xmlns="http://www.w3.org/2000/svg" width="30" height="30"><defs><style/></defs><path d="M978.074 512c0 257.382-208.692 466.074-466.074 466.074S45.926 769.382 45.926 512 254.618 45.926 512 45.926 978.074 254.618 978.074 512z" fill="#5495E7"/><path d="M761.958 529.562s11.162-16.128 27.444-14.644 21.401 35.328 20.07 54.272-12.8 51.405-47.514 73.83V529.51zm-504.37 0c.102 0-10.753-16.128-26.471-14.644s-20.685 35.328-19.456 54.272 12.441 51.405 46.08 73.83V529.51z" fill="#BD8651"/><path d="M229.376 688.64c-2.048 8.5-3.686 10.342-7.168 15.462-6.963 8.397-15.872 10.24-22.835 9.933-8.909 16.18-30.72 19.661-49.664 8.09-15.463-9.472-19.712-28.826-30.055-44.544 3.892 4.761 8.704 9.472 13.21 10.905 7.987 2.56 12.39-5.12 10.906-11.98-.308-1.434-.87-3.277-1.639-5.274l-1.126-1.024-1.024-1.024c-5.12-5.12-9.216-12.134-11.776-17.1l-.256-.666c-1.127-2.816-1.741-6.042-1.434-9.063v-.102c.103-1.28.41-2.56.922-3.789.256-.717.665-1.382 1.126-2.048 3.789-5.632 11.418-7.066 17.255-4.198.614.512 1.28 1.024 1.945 1.69 0-.154 0-.308-.102-.513-1.536-11.469 10.905-18.944 19.968-15.513 2.201 1.228 4.198 3.276 5.99 5.836l.922 1.434c3.789 5.99 6.451 13.978 7.68 20.275 2.56-.921 5.888-1.536 10.137-1.024 8.039.666 10.548.41 11.264.256v-.102c5.735 0 13.824 4.096 19.047 13.926 5.99 11.264 7.373 18.842 6.656 30.208z" fill="#E7C193"/><path d="M208.282 668.16s-2.048.614-5.274 1.229c-3.174.614-7.475 1.28-11.674 1.024l-3.174-.359c-1.024-.102-2.048-.512-3.072-.614l-2.662-.87-2.356-1.024c-1.382-.922-2.662-1.434-3.328-2.048-.819-.512-1.228-.87-1.228-.87l1.024 1.126c.665.716 1.74 1.536 3.072 2.56 1.536.819 3.174 1.792 5.12 2.406l3.174.717c1.024.205 2.202.358 3.328.41 2.202.102 4.454 0 6.502-.359 2.048-.256 3.943-.82 5.479-1.28 3.072-1.024 5.017-2.048 5.017-2.048z" fill="#E6AF75"/><path d="M151.04 678.093c-2.048-.512-7.168-4.71-9.011-6.349l-1.127-1.024-1.024-1.024c-5.12-5.12-9.216-12.134-11.776-17.152l-.256-.614c-1.024-2.816-1.69-6.042-1.382-9.114.205-1.331.512-2.56.922-3.84l1.024-2.048c3.89-5.632 11.52-7.066 17.408-4.198.614.512 1.28 1.024 1.945 1.69.205 1.023.512 2.15 1.024 3.174 2.355 5.632 6.759 14.848 11.981 21.094.358 1.229 3.072 4.915 3.174 5.888 1.23 8.192-2.662 16.18-12.953 13.517z" fill="#E7C193"/><path d="M154.675 678.502c.666 0 1.331 0 1.895-.204a4.915 4.915 0 001.74-.512c2.356-.922 3.943-2.97 4.608-5.274.512-1.126.512-2.355.666-3.584 0-1.178 0-2.304-.102-3.584 0-.717-.103-.922-.512-1.536l-.87-1.536c-.666-1.024-1.332-2.048-1.895-3.43l.102.307c-2.97-3.584-5.427-7.68-7.526-11.776l-3.072-6.247-1.28-3.174c-.512-1.126-.82-2.253-1.024-3.482l.153.308-1.894-1.639h.102c-3.584-1.792-8.192-2.048-12.032-.205-1.894.87-3.584 2.304-4.71 3.994-1.178 1.69-1.69 3.84-2.048 5.888 0 1.792.154 3.584.614 5.427.154.922.41 1.792.82 2.663.256.921.614 1.536 1.024 2.457 1.843 3.277 3.686 6.503 5.734 9.575a72.354 72.354 0 003.277 4.505c1.177 1.434 2.355 2.867 3.737 4.096 1.383 1.229 2.868 2.407 4.301 3.584 1.536 1.024 2.97 2.253 4.71 2.97 1.178.256 2.407.512 3.585.512zm-8.448-3.276c-1.536-1.127-2.97-2.304-4.403-3.482-1.536-1.178-2.867-2.56-4.096-3.84a57.288 57.288 0 01-3.686-4.352 64.705 64.705 0 01-5.888-9.728c-.512-.717-.922-1.74-1.127-2.56-.256-.922-.512-1.843-.614-2.816-.41-1.894-.41-3.84-.256-5.734.512-2.048.921-4.25 2.253-6.144 1.33-1.639 2.97-3.175 4.915-4.096 3.891-1.946 8.704-2.048 12.697-.205h.103c.768.512 1.536 1.024 2.15 1.69l.103.102v.153c.307 1.024.665 2.15 1.126 3.175l1.434 3.072 3.072 6.144c1.177 2.048 2.304 3.993 3.584 5.939 1.126 1.946 2.457 3.789 3.89 5.53l.103.102v.205c.359.87 1.127 2.048 1.741 3.072l.922 1.69c.358.511.512 1.535.512 2.047.307 2.56 0 5.12-1.024 7.578-.87 2.458-2.765 4.608-5.12 5.376l-1.895.512c-.665.102-1.331 0-1.945 0-1.28 0-2.56-.205-3.738-.512-1.792-.614-3.328-1.792-4.864-2.918z" fill="#E6AF75"/><path d="M134.042 689.92c-4.455-1.434-12.135-8.704-16.026-13.466l-2.714-4.096c-2.406-3.942-3.584-7.833-3.686-11.622.102-.82.205-1.536.41-2.355l.358-1.024c2.355-4.967 8.397-7.578 13.517-6.656l.665.256c2.56 4.966 6.656 12.032 11.776 17.152l1.024 1.024 1.127 1.024c.768 1.945 3.737 6.4 4.403 7.68 3.174 6.246-2.918 14.643-10.906 12.032z" fill="#E7C193"/><path d="M137.523 690.176c1.229-.154 2.407-.512 3.43-1.178 2.049-1.177 3.482-3.328 3.994-5.632.307-1.126.256-2.304 0-3.379 0-.512-.256-1.024-.512-1.536-.205-.512-.614-1.024-.87-1.536-1.331-2.048-2.663-4.096-3.789-6.502l.154.307c-1.536-1.28-2.97-2.816-4.301-4.3-1.331-1.537-2.56-3.175-3.584-4.865-2.355-3.225-4.25-6.81-5.99-10.342l.307.205a12.206 12.206 0 00-8.5.768 13.84 13.84 0 00-3.584 2.56c-.921 1.024-1.74 2.355-2.15 3.737-.205.717-.307 1.536-.358 2.253.153 2.765 1.024 5.478 2.201 8.038.256.717.615 1.28.922 1.946l.512.922.614.87 2.355 3.584c2.048 2.662 4.404 5.325 6.964 7.68 1.28 1.28 2.56 2.458 3.993 3.482 1.383 1.024 2.867 2.048 4.506 2.662 1.177.307 2.406.512 3.584.358zm-8.192-2.816a45.867 45.867 0 01-4.25-3.174c-2.713-2.304-5.324-4.608-7.68-7.424-.767-1.23-1.535-2.407-2.406-3.584-.153-.256-.41-.666-.512-1.024l-.614-.922c-.307-.666-.666-1.331-.922-2.048a20.456 20.456 0 01-1.74-8.55l.409-2.407c1.126-2.867 3.43-5.12 6.144-6.553 2.662-1.434 5.888-1.895 8.858-1.23h.256l.102.257a112.167 112.167 0 006.246 9.984c1.127 1.638 2.356 3.174 3.584 4.608 1.383 1.536 2.56 2.918 4.096 4.198h.154l.102.307c.922 2.048 2.356 4.096 3.584 6.298l.82 1.74c.256.513.512 1.127.512 1.844.204.666.153 1.331.153 2.048 0 .512-.153 1.229-.358 1.843-.82 2.458-2.56 4.608-4.762 5.735-1.126.614-2.355 1.024-3.584 1.024-1.229.153-2.56-.154-3.686-.512-1.639-.512-3.175-1.536-4.608-2.56z" fill="#E6AF75"/><path d="M173.722 652.186s-4.352 6.144 1.843 12.441c-2.56 1.229-5.632 1.229-9.011-.512-2.253-1.229-4.455-3.225-6.503-5.734-5.273-6.298-9.625-15.514-12.083-21.095-.358-1.024-.666-2.048-.87-3.072l-.103-.614h.103c-1.536-11.469 10.854-18.944 19.968-15.514 2.15 1.28 4.096 3.328 5.939 5.888l.921 1.434c3.687 5.94 6.35 13.926 7.68 20.224-6.041 2.202-7.833 6.656-7.833 6.656z" fill="#E7C193"/><path d="M175.104 650.035c.512-.665 1.024-1.331 1.74-1.894.666-.666 1.434-1.024 2.202-1.536.717-.512 1.536-.87 2.356-1.28l-.205.307-1.536-5.12-1.792-5.12-2.15-4.915-2.56-4.608c-.922-1.536-1.844-2.816-2.97-3.994-.512-.614-1.127-1.177-1.741-1.69-.512-.511-1.229-.87-1.894-1.382h.102c-1.024-.307-2.253-.614-3.43-.717-1.178 0-2.356 0-3.584.205-2.304.41-4.608 1.331-6.554 2.714s-3.584 3.225-4.608 5.478c-.205.512-.512 1.024-.666 1.69-.102.512-.358 1.126-.41 1.792-.204 1.177-.153 2.406-.102 3.584v.819l-.512-.512h-.102l.512-.256c.154.87.512 1.843.768 2.765.307.87.717 1.69 1.126 2.56.717 1.792 1.536 3.584 2.458 5.222.922 1.69 1.792 3.38 2.867 5.018 1.024 1.536 1.895 3.277 3.072 4.761l1.792 2.304c.615.717 1.178 1.639 1.792 2.253 1.229 1.434 2.56 2.714 4.096 3.84.666.512 1.536 1.178 2.304 1.434.87.307 1.69.87 2.56.921l1.383.256h1.33c1.025 0 1.793-.41 2.663-.512l-.102.512-1.024-1.382c-.307-.512-.768-.82-1.024-1.434l-.615-1.536c-.204-.512-.153-1.177-.307-1.74a4.639 4.639 0 01-.102-1.69c0-.614 0-1.178.205-1.69.204-1.177.716-2.201 1.28-3.174.41-.82.921-1.536 1.536-2.253zm-2.56 5.427a9.016 9.016 0 00-.154 1.69c0 .512 0 1.126.154 1.638s.154 1.127.41 1.536l.768 1.536c.204.512.665.87 1.024 1.332l1.024 1.28.41.41-.513.153c-.87.256-1.792.819-2.816.819l-1.536.102-1.536-.153c-1.024-.103-1.894-.615-2.816-1.024-1.024-.307-1.74-.82-2.56-1.383-1.69-1.177-3.072-2.56-4.3-4.096-.717-.768-1.178-1.536-1.741-2.355l-1.69-2.406c-1.178-1.536-2.048-3.328-2.97-5.018-1.024-1.69-1.74-3.43-2.56-5.12-1.024-1.74-1.69-3.584-2.56-5.273-.358-.87-.819-1.741-1.024-2.663-.307-1.024-.716-1.792-.87-2.816l-.102-.512.665.256-.512.256c-.153-1.28-.256-2.56-.102-3.84 0-.614.256-1.229.41-1.894.102-.666.409-1.178.614-1.843 1.024-2.407 2.662-4.506 4.71-6.144 2.048-1.536 4.455-2.663 7.066-3.175 1.28-.256 2.56-.307 3.891-.256s2.56.359 3.891.82h.103c.716.511 1.536.87 2.201 1.535a10.786 10.786 0 011.946 1.792c1.177 1.28 2.201 2.714 3.072 4.096l2.56 4.916 2.048 5.12 1.536 5.324 1.126 5.376v.154l-.153.102c-.82.359-1.639.615-2.407 1.024-.717.41-1.536.87-2.15 1.434-.666.512-1.28 1.178-1.843 1.792a16.264 16.264 0 00-1.434 2.202c-.512 1.024-1.024 2.048-1.229 3.174z" fill="#E6AF75"/><path d="M208.589 645.478c-.666.103-8.96-.41-16.999-1.177-4.3-.359-7.577.153-10.24 1.126-1.177-6.349-5.632-16.896-9.318-22.784-.154-3.174-.256-3.277.82-5.734 1.791-4.096 7.167-6.042 7.167-6.042 2.048-.87 5.99-1.894 7.475-1.638 2.56.512 4.404 1.024 6.144 2.355 7.988 6.144 15.156 24.986 14.95 33.946z" fill="#E7C193"/><path d="M208.589 645.274l-.103.102c0-2.202-.512-4.3-1.024-6.451-.512-2.15-1.126-4.199-1.792-6.247-.768-2.048-1.536-4.096-2.457-5.99l-2.97-5.632c-1.126-1.894-2.253-3.738-3.584-5.376-.665-.87-1.382-1.536-2.048-2.355-.819-.768-1.536-1.536-2.406-2.048-.87-.512-1.843-.82-2.867-1.024-1.024-.307-2.15-.666-3.072-.615-2.048.154-4.096.768-6.144 1.536-2.304.82-4.608 2.15-6.144 4.096-.768.922-1.332 2.202-1.69 3.38-.358 1.177-.205 2.56-.102 3.788v-.102l3.072 5.376 2.662 5.632c1.69 3.789 3.174 7.68 4.096 11.776l-.922-.512c1.024-.256 2.202-.614 3.38-.768 1.126-.256 2.355-.256 3.584-.358h1.638l1.74.153 3.38.512 6.81.615c2.304.204 4.608.512 6.86.512zm0 .153c-2.304.103-4.608 0-6.861-.102-2.253 0-4.608-.205-6.81-.359l-3.379-.204c-1.024 0-2.253-.154-3.379 0-1.024 0-2.202 0-3.277.307-1.024.102-2.15.512-3.174.768l-.717.256-.154-.717a55.137 55.137 0 00-1.536-5.888l-2.048-5.734c-1.536-3.84-3.174-7.68-5.324-11.11v-.103c0-1.28-.308-2.56 0-3.943.512-1.228.87-2.406 1.69-3.584 1.535-2.201 3.788-3.686 6.297-4.761 2.048-.87 4.096-1.536 6.451-1.741 1.28-.102 2.304.256 3.38.512 1.023.256 2.2.614 3.225 1.178 1.024.512 1.843 1.382 2.56 2.048.87.819 1.69 1.638 2.355 2.56 1.382 1.74 2.56 3.584 3.686 5.53 2.15 3.84 3.738 7.986 5.018 12.134 1.229 4.25 2.253 8.601 2.048 13.004v.103h-.102v-.461l.307.154h-.307z" fill="#E6AF75"/><path d="M190.208 669.03c-.717 0-1.434 0-2.15-.153-2.202-.41-4.199-1.434-5.223-2.663-.665-.921-.614-1.74-.41-2.252.41-.922 1.537-1.536 3.073-1.639 1.945-.153 4.352.666 5.376 1.843a1.81 1.81 0 01.307 1.741c-.307.666-1.024 1.127-2.15 1.229h-.308c-1.331 0-2.662-.512-3.328-1.331-.41-.41-.512-.922-.256-1.383 0-.204.256-.512.615-.665h-.154c-1.024.102-1.69.512-1.843.768 0 .153 0 .41.256.665 1.177 1.434 4.3 2.56 6.86 2.304h.513l.256.615c0 .41-.205.717-.512.819h-.87z" fill="#F2C096"/><path d="M191.283 670.618c-.819 0-1.69 0-2.56-.256-4.352-.768-8.294-3.38-8.857-5.735-.205-.819-.103-2.406 2.406-3.277.922-.307 1.894-.512 2.918-.512 3.38 0 6.81 1.741 8.448 3.43 1.332 1.434 1.178 2.56 1.024 3.073-.512 1.024-1.69 1.536-3.737 1.74h-.615l-.256-.614c0-.512.308-.87.717-.87 2.048-.154 2.355-.717 2.458-.87.102-.154 0-.666-.717-1.383-1.331-1.434-4.403-2.918-7.373-2.918-.87 0-1.638.102-2.355.358-1.69.512-1.536 1.382-1.536 1.536.614 2.406 6.349 5.427 11.264 4.864h.614l.205.717c0 .102 0 .307-.153.512l-.205.205h-.41c-.41.102-.87.102-1.331.102z" fill="#F2C096"/><path d="M395.418 833.638s-105.114-23.347-156.16-124.21l-52.532 35.634s77.312 117.863 220.416 133.735l-11.776-45.159z" fill="#D0D1D3"/><path d="M239.36 709.478l-52.582 35.636-10.599-15.668 52.634-35.635z" fill="#F1F1F1"/><path d="M228.71 693.76s-3.072 2.56-7.782 6.246c-4.71 3.584-11.264 8.192-17.766 12.698-6.656 4.403-13.312 8.704-18.432 11.776-5.12 3.072-8.704 4.915-8.704 4.915s3.072-2.56 7.884-6.144c4.71-3.737 11.264-8.294 17.716-12.8 6.656-4.403 13.312-8.704 18.432-11.776 5.12-3.072 8.704-4.915 8.704-4.915z" fill="#040000"/><path d="M794.624 688.64c2.048 8.5 3.686 10.342 7.168 15.462 6.963 8.397 15.872 10.24 22.784 9.933 8.96 16.18 30.822 19.661 49.766 8.09 15.36-9.472 19.661-28.826 30.004-44.544-3.892 4.761-8.807 9.472-13.21 10.905-7.987 2.56-12.39-5.12-10.957-11.98.359-1.434 1.024-3.277 1.741-5.274l1.126-1.024 1.024-1.024c5.12-5.12 9.216-12.134 11.776-17.1l.256-.666c1.127-2.816 1.741-6.042 1.434-9.063v-.102c-.102-1.28-.41-2.56-1.024-3.789-.154-.717-.512-1.382-1.024-2.048-3.789-5.632-11.418-7.066-17.254-4.198-.615.512-1.332 1.024-1.946 1.69 0-.154 0-.308.102-.513 1.536-11.469-10.905-18.944-19.968-15.513-2.201 1.228-4.198 3.276-6.041 5.836-.256.512-.512 1.024-.87 1.434-3.79 5.99-6.452 13.978-7.68 20.275-2.56-.921-5.889-1.536-10.24-1.024-7.988.666-10.497.41-11.111.256v-.102c-5.837 0-13.824 4.096-19.098 13.926-5.99 11.264-7.372 18.842-6.656 30.208z" fill="#E7C193"/><path d="M815.616 668.16s2.15.614 5.376 1.229c3.174.614 7.475 1.28 11.674 1.024l3.174-.359c1.024-.102 2.048-.512 2.97-.614l2.764-.87c.82-.41 1.536-.768 2.356-1.024 1.382-.922 2.56-1.434 3.328-2.048l1.228-.87-1.024 1.126c-.665.716-1.74 1.536-3.072 2.56-1.536.819-3.174 1.792-5.12 2.406-1.024.205-2.048.512-3.225.717-1.127.205-2.253.358-3.328.41-2.253.102-4.455 0-6.503-.359-2.048-.256-3.942-.82-5.53-1.28-3.071-1.024-5.12-2.048-5.12-2.048z" fill="#E6AF75"/><path d="M872.96 678.093c2.048-.512 7.168-4.71 9.011-6.349l1.127-1.024 1.024-1.024c5.12-5.12 9.216-12.134 11.776-17.152 0 0 0-.256.204-.614 1.127-2.816 1.741-6.042 1.434-9.114a24.665 24.665 0 00-.922-3.84 11.463 11.463 0 00-1.126-2.048c-3.789-5.632-11.418-7.066-17.254-4.198-.666.512-1.332 1.024-2.048 1.69-.154 1.023-.512 2.15-.922 3.174-2.458 5.632-6.81 14.848-12.083 21.094-.359 1.229-3.072 4.915-3.175 5.888-1.228 8.192 2.663 16.18 12.954 13.517z" fill="#E7C193"/><path d="M872.96 678.042c1.74-.717 3.226-1.895 4.71-2.97a75.905 75.905 0 004.301-3.584c1.434-1.229 2.56-2.662 3.789-4.096 1.178-1.434 2.253-2.97 3.277-4.506a99.724 99.724 0 005.632-9.574c.512-.82.87-1.536 1.177-2.458.359-.87.615-1.74.82-2.56.512-1.843.512-3.686.512-5.53-.308-2.047-.768-4.095-1.946-5.785-1.229-1.69-2.816-3.072-4.762-3.993-3.788-1.844-8.345-1.536-12.032.256h.103c-.717.512-1.383 1.024-1.946 1.638l.154-.41c-.256 1.23-.512 2.356-1.024 3.482-.512 1.024-.87 2.15-1.383 3.174a70.584 70.584 0 01-3.072 6.247c-2.048 4.096-4.608 8.192-7.526 11.776l.205-.307c-.512 1.433-1.229 2.355-1.895 3.481l-1.024 1.536c-.256.512-.307.768-.41 1.536-.255 1.229-.255 2.355-.204 3.584.102 1.229.256 2.407.666 3.584.614 2.253 2.252 4.301 4.505 5.223a3.49 3.49 0 001.792.512c.512.204 1.178.153 1.792.204 1.28 0 2.458-.204 3.687-.512zm0 .153c-1.178.307-2.406.512-3.686.512-.615 0-1.28 0-1.844-.102-.665 0-1.28-.205-1.843-.512-2.457-.768-4.352-2.867-5.273-5.274-1.024-2.304-1.28-5.017-1.024-7.526 0-.512.204-1.536.512-2.048l1.024-1.639c.512-1.024 1.33-2.15 1.638-3.072l.102-.153v-.103c1.536-1.792 2.816-3.584 4.096-5.632 1.127-1.894 2.304-3.84 3.38-5.836 1.024-2.048 2.15-4.096 3.072-6.144l1.536-3.072c.41-1.024.768-2.048 1.024-3.072v-.256l.153-.103 2.048-1.69h.103a14.938 14.938 0 0112.8.154c1.894.922 3.584 2.458 4.812 4.199 1.383 1.792 1.844 3.942 2.304 6.041.154 1.946.154 3.84-.256 5.735a16.157 16.157 0 01-.665 2.816c-.205.87-.717 1.894-1.178 2.662-1.69 3.328-3.584 6.554-5.888 9.626-1.126 1.536-2.355 2.918-3.584 4.352-1.331 1.33-2.662 2.713-4.096 3.89l-4.454 3.585c-1.536 1.024-3.072 2.201-4.813 2.867z" fill="#E6AF75"/><path d="M889.958 689.92c4.455-1.434 12.135-8.704 16.026-13.466l2.714-4.096c2.406-3.942 3.584-7.833 3.686-11.622-.102-.82-.205-1.536-.41-2.355l-.358-1.024c-2.355-4.967-8.397-7.578-13.517-6.656l-.665.256c-2.56 4.966-6.656 12.032-11.776 17.152l-1.024 1.024-1.127 1.024c-.768 1.945-3.737 6.4-4.403 7.68-3.174 6.246 2.918 14.643 10.906 12.032z" fill="#E7C193"/><path d="M890.06 689.766c1.64-.614 3.073-1.536 4.506-2.56s2.714-2.252 3.994-3.481c2.56-2.407 4.864-5.12 7.014-7.68l2.304-3.584.512-.922.512-.921 1.024-1.895c1.23-2.56 2.048-5.222 2.202-8.038l-.358-2.253c-.512-1.382-1.23-2.662-2.202-3.738a13.84 13.84 0 00-3.584-2.56c-2.56-1.28-5.632-1.536-8.448-.768l.358-.256c-1.74 3.584-3.584 7.168-5.939 10.445-1.024 1.741-2.253 3.328-3.584 4.915-1.28 1.536-2.765 3.072-4.25 4.25l.205-.358c-1.024 2.406-2.406 4.454-3.737 6.502-.256.512-.666 1.024-.87 1.536-.257.512-.513 1.024-.513 1.536-.256 1.126-.307 2.304 0 3.482.41 2.252 1.895 4.352 3.943 5.632 1.024.614 2.201 1.024 3.379 1.024 1.229.256 2.458 0 3.584-.308zm0 .154c-1.126.307-2.406.614-3.583.512-1.28 0-2.56-.512-3.584-1.024-2.304-1.178-3.994-3.277-4.762-5.786a11.253 11.253 0 01-.307-1.894c0-.666 0-1.331.102-2.048.103-.666.308-1.229.512-1.792.308-.717.615-1.178.922-1.74 1.178-2.151 2.56-4.2 3.584-6.298v-.205l.154-.154c1.536-1.28 2.764-2.662 4.096-4.096 1.28-1.536 2.56-3.072 3.584-4.71a96.957 96.957 0 006.297-10.035l.103-.256h.256c2.97-.717 6.144-.205 8.908 1.177 2.714 1.383 5.018 3.687 6.144 6.554l.41 2.355c0 2.97-.512 5.94-1.69 8.704l-1.024 1.946-.512 1.024-.512.921-2.56 3.584c-2.252 2.765-4.864 5.12-7.526 7.424l-4.198 3.226c-1.536 1.024-3.072 1.945-4.608 2.56z" fill="#E6AF75"/><path d="M850.278 652.186s4.352 6.144-1.843 12.441c2.56 1.229 5.632 1.229 9.011-.512 2.253-1.229 4.455-3.225 6.503-5.734 5.222-6.298 9.625-15.514 12.032-21.095.512-1.024.768-2.048 1.024-3.072v-.614c1.536-11.469-10.855-18.944-19.968-15.514-2.15 1.28-4.096 3.328-5.94 5.888l-.921 1.434c-3.686 5.94-6.349 13.926-7.68 20.224 6.042 2.202 7.834 6.656 7.834 6.656z" fill="#E7C193"/><path d="M850.432 652.288c.512 1.024 1.024 2.048 1.229 3.072.153.614.205 1.178.205 1.792 0 .512 0 1.126-.103 1.69-.153.512-.102 1.177-.358 1.69l-.717 1.638c-.205.614-.666 1.024-1.024 1.536l-1.024 1.33v-.614c.82.205 1.638.666 2.56.615h1.382l1.383-.256c.87 0 1.69-.615 2.56-.922.768-.256 1.638-.921 2.355-1.433 1.434-1.127 2.816-2.458 4.096-3.84l1.69-2.253 1.74-2.304c1.178-1.536 2.048-3.175 3.072-4.762 1.024-1.638 1.946-3.328 2.868-5.017.87-1.69 1.74-3.43 2.56-5.223.307-.87.768-1.69 1.024-2.662.153-.922.512-1.843.665-2.714l.512.256-.614.512.102-.717c.103-1.228.154-2.457 0-3.686-.102-.614-.307-1.178-.512-1.792 0-.614-.358-1.178-.512-1.74-1.024-2.202-2.713-4.097-4.71-5.48-1.946-1.433-4.199-2.354-6.656-2.815a19.61 19.61 0 00-3.482-.154 12.846 12.846 0 00-3.43.768h.102c-.665.41-1.382.768-1.945 1.331a11.143 11.143 0 00-1.792 1.69c-1.127 1.178-2.048 2.458-2.97 3.942v.103-.103l-2.56 4.608-2.15 4.967-1.844 5.12-1.536 5.12-.153-.256c.819.41 1.638.717 2.406 1.177.717.512 1.536 1.024 2.15 1.536.666.512 1.28 1.23 1.844 1.946.512.717 1.024 1.434 1.382 2.253zm-.205 0a9.239 9.239 0 00-1.433-2.048c-.512-.717-1.178-1.331-1.844-1.894a19.62 19.62 0 00-2.15-1.434c-.768-.41-1.638-.666-2.406-1.024h-.205v-.307l1.126-5.376c.512-1.741.922-3.584 1.536-5.274l2.048-5.12 2.56-4.864v-.102h.103-.103c.87-1.331 1.895-2.816 3.072-4.096.512-.666 1.229-1.229 1.895-1.792.614-.615 1.433-1.024 2.15-1.536h.102c1.28-.512 2.56-.768 3.892-.82 1.33-.102 2.662 0 3.942.205 2.56.512 4.966 1.639 7.014 3.226s3.738 3.738 4.762 6.144c.154.614.512 1.178.614 1.792 0 .666.256 1.28.308 1.946.153 1.28.102 2.56 0 3.84l-.615-.308.666-.204v.512c-.256 1.024-.615 1.843-.87 2.764-.257.922-.769 1.844-1.127 2.663-.87 1.792-1.536 3.584-2.458 5.273-.921 1.69-1.69 3.482-2.662 5.12-1.024 1.69-1.792 3.482-2.918 5.018l-1.536 2.406c-.615.82-1.024 1.536-1.844 2.356-1.228 1.536-2.56 2.918-4.25 4.096-.818.512-1.535 1.024-2.56 1.536-.92.256-1.842.819-2.866.87l-1.536.205c-.512 0-1.024-.154-1.536-.205-1.024 0-1.895-.512-2.816-.82l-.512-.153.358-.512 1.024-1.177c.358-.512.87-.82 1.024-1.332l.768-1.536c.256-.512.307-1.024.41-1.536a4.638 4.638 0 00.153-1.69c0-.511 0-1.126-.153-1.638-.205-1.177-.666-2.201-1.23-3.174z" fill="#E6AF75"/><path d="M815.411 645.478c.615.103 8.96-.41 16.999-1.177 4.25-.359 7.577.153 10.137 1.126 1.28-6.349 5.632-16.896 9.37-22.784.153-3.174.205-3.277-.82-5.734-1.791-4.096-7.167-6.042-7.167-6.042-2.048-.87-5.99-1.894-7.424-1.638-2.56.512-4.506 1.024-6.247 2.355-8.038 6.144-15.206 24.986-14.95 33.946z" fill="#E7C193"/><path d="M815.411 645.274c2.253 0 4.557-.359 6.81-.512l6.656-.717 3.481-.41 1.741-.102c.512 0 1.024-.103 1.69 0 1.177 0 2.355 0 3.584.256 1.126.153 2.253.512 3.379.819l-.82.512c.871-4.096 2.305-7.987 3.994-11.776.87-1.894 1.792-3.738 2.765-5.632.922-1.74 1.946-3.584 3.072-5.325v.103c0-1.28.154-2.56-.153-3.79-.41-1.177-.922-2.457-1.69-3.378-1.536-1.946-3.84-3.277-6.144-4.096-2.048-.768-4.096-1.332-6.144-1.536-.922 0-2.048.307-3.072.512-1.024.307-1.946.665-2.816 1.177-.87.512-1.536 1.28-2.406 2.048-.717.717-1.434 1.434-2.048 2.304a37.265 37.265 0 00-3.584 5.325c-1.024 1.843-2.048 3.738-2.919 5.632-.87 2.048-1.69 4.096-2.406 6.042-.717 2.048-1.383 4.096-1.843 6.144-.512 2.201-.922 4.3-1.024 6.502l-.103-.102zm-.307.102l.307-.102s-.102-.154 0 .153h-.102v-.102c-.205-4.352.768-8.704 2.048-12.903 1.28-4.198 2.867-8.345 5.017-12.185 1.024-1.895 2.253-3.789 3.687-5.53.665-.921 1.536-1.69 2.304-2.56.717-.665 1.536-1.433 2.56-2.048 1.024-.512 2.201-.921 3.277-1.229 1.024-.204 2.15-.512 3.43-.512 2.355.308 4.403 1.024 6.554 1.844 2.406 1.024 4.71 2.56 6.297 4.71.87 1.178 1.28 2.406 1.69 3.686.307 1.332 0 2.663 0 3.943-2.048 3.584-3.789 7.321-5.274 11.161l-2.048 5.786a72.672 72.672 0 00-1.536 5.94l-.205.716-.716-.205c-1.024-.307-2.048-.717-3.226-.87-1.126-.307-2.202-.307-3.277-.41h-3.43l-3.43.256c-2.305.154-4.609.307-6.861.359-2.304.102-4.608.204-6.861.102h-.307z" fill="#E6AF75"/><path d="M833.792 669.03h-.717a.922.922 0 01-.614-.614v-.154l.102-.614.717-.102h.563c2.407 0 5.12-1.024 6.144-2.253.205-.205.359-.512.256-.768 0-.359-.665-.717-1.74-.82h-.205c.41.205.614.513.716.717.205.41.103.922-.307 1.383-.665.819-2.201 1.433-3.584 1.28-1.177-.103-1.945-.512-2.201-1.229-.256-.512-.154-1.178.307-1.69 1.024-1.228 3.379-2.048 5.376-1.894 1.536.154 2.662.717 3.072 1.638.153.41.307 1.28-.512 2.253-1.024 1.229-2.97 2.253-5.12 2.663l-2.202.153z" fill="#F2C096"/><path d="M832.717 670.618h-1.383l-.256-.103-.512-.512.103-.358c0-.307.307-.615.717-.615h1.382c4.608 0 9.472-2.662 9.984-4.761 0-.307.154-1.024-1.536-1.639-.717-.256-1.536-.358-2.355-.358-2.97 0-6.042 1.536-7.424 2.918-.717.717-.87 1.23-.768 1.434.153.41.87.82 2.457.922h.512l.205.716c0 .41-.358.768-.768.768-2.048-.153-3.328-.768-3.789-1.792-.307-.921 0-1.945 1.024-3.072 1.639-1.638 5.12-3.328 8.448-3.328 1.024 0 2.048.154 2.919.512 2.56.82 2.56 2.407 2.406 3.277-.512 2.407-4.505 5.018-8.806 5.786a11.71 11.71 0 01-2.56.256z" fill="#F2C096"/><path d="M628.582 833.638s105.114-23.347 156.16-124.21l52.532 35.634s-77.312 117.863-220.416 133.735l11.776-45.159z" fill="#D0D1D3"/><path d="M795.29 693.76l52.582 35.635-10.598 15.616-52.583-35.584z" fill="#F1F1F1"/><path d="M795.29 693.76s3.584 1.894 8.704 4.915c5.12 3.072 11.776 7.373 18.432 11.776 6.45 4.506 12.953 9.063 17.664 12.8 4.761 3.584 7.782 6.144 7.782 6.144s-3.584-1.843-8.704-4.915-11.776-7.373-18.33-11.776c-6.553-4.506-13.056-9.062-17.766-12.698-4.762-3.584-7.782-6.246-7.782-6.246z" fill="#040000"/><path d="M647.68 957.594c0-77.312-2.304-124.11-39.782-139.47-17.562-7.167-21.095-3.071-65.536-3.071h-37.786c-64.205 0-68.096-4.608-89.907 3.789-34.56 13.312-41.472 64.716-41.626 137.728 43.879 13.67 90.522 20.992 138.906 20.992 47.206 0 92.774-6.964 135.68-19.968z" fill="#EC8F26"/><path d="M647.68 957.594c-43.008 13.056-88.576 20.07-135.68 20.07-48.333 0-94.976-7.373-138.854-20.992" fill="#F1F1F1"/><path d="M647.68 957.594v-2.919h-35.328c6.656-92.672-12.8-147.558-13.824-150.016l-30.925 11.264c.205.512 18.279 52.224 11.674 138.752H442.163c-6.553-86.528 11.52-138.137 11.776-138.752l-15.565-5.632-14.745-5.325-.768-.307-.256.512c-2.253 6.503-19.968 60.621-13.568 149.504h-35.943v1.946c43.879 13.67 90.47 20.992 138.855 20.992 47.104 0 92.672-6.963 135.68-19.968z" fill="#F1F1F1"/><path d="M506.06 854.528l43.316 46.08 77.568-66.867" fill="#252324"/><path d="M506.06 854.528l43.316 41.574L629.146 832" fill="#D0D1D3"/><path d="M515.277 854.528l-43.315 46.08-77.568-66.867" fill="#252324"/><path d="M515.277 854.528l-43.52 41.677-79.975-64.307" fill="#D0D1D3"/><path d="M243.763 564.224a290.1 266.394 90 10532.787 0 290.1 266.394 90 10-532.787 0z" fill="#E6C69A"/><path d="M750.95 609.28c53.453-81.51 59.904-132.096 59.904-132.096l22.528 5.94c1.23-105.985-33.69-163.636-33.69-163.636l36.353-6.349c-24.474-96.768-111.719-115.456-111.719-115.456l34.97-24.064c-61.44-44.953-156.518-43.417-156.518-43.417l5.632-40.96c-92.98-6.912-172.39 41.676-172.39 41.676l-8.09-46.592c-95.232 46.08-153.703 122.522-153.703 122.522l-14.643-14.438c-45.363 73.728-45.056 167.936-45.056 167.936l-28.928-5.837c11.264 163.635 81.664 254.771 81.664 254.771s-9.83-140.646 63.232-177.152c29.491-14.848 76.493 6.554 180.378 6.554 116.377 0 163.328-17.05 189.952 3.788 25.088 19.866 56.832 49.562 50.176 166.912z" fill="#39291C"/><path d="M750.95 609.28c5.837-10.65 11.674-21.35 16.999-32.256 2.56-5.478 5.273-10.854 7.68-16.384 2.56-5.53 4.915-11.06 7.168-16.691a410.702 410.702 0 0012.288-33.792c1.638-5.786 3.225-11.52 4.608-17.255.665-2.867 1.229-5.734 1.792-8.55.512-2.765 1.024-5.888 1.28-8.192l.717-8.909 9.472 2.048 22.732 4.915-11.57 8.807c-.41-6.912-.666-13.824-1.178-20.634-.768-6.81-1.127-13.67-2.15-20.48-1.025-6.758-1.793-13.517-3.073-20.224-1.024-6.758-2.56-13.414-3.891-20.07-1.638-6.656-3.072-13.21-5.12-19.712-1.792-6.503-3.942-12.903-6.144-19.2-2.355-6.298-4.813-12.544-7.578-18.535-1.382-2.97-2.867-5.888-4.3-8.704-1.434-2.816-3.175-5.99-4.404-7.833l-12.083-18.637 22.682-4.608 30.003-6.246-13.158 20.275c-1.792-6.042-3.687-12.032-6.042-17.767-2.304-5.836-4.966-11.417-7.885-16.793-5.888-10.752-13.056-20.736-21.35-29.491-8.192-8.858-17.767-16.384-27.853-22.836-5.12-3.174-10.342-6.144-15.77-8.55-2.713-1.229-5.427-2.355-8.192-3.328-2.406-1.024-5.785-2.048-7.168-2.355l-43.417-9.984 36.761-26.112 34.612-24.576-.41 33.792c-19.456-13.67-43.315-22.63-68.096-28.57-12.39-3.072-25.088-5.325-37.888-6.86a356.198 356.198 0 00-19.302-1.844l-9.626-.512c-3.072 0-6.656-.153-9.062-.102l-25.908.41 3.43-25.805 5.48-40.96 20.633 25.6c-6.81-.103-13.568-.82-20.48-.41l-10.24.358-10.24 1.024c-3.38.205-6.81.666-10.24 1.23l-10.24 1.638-10.24 2.048c-3.43.512-6.759 1.536-10.138 2.355-3.43.768-6.81 1.638-10.137 2.662-3.38 1.024-6.759 1.895-10.036 3.072-6.656 2.048-13.312 4.455-19.814 6.963-6.451 2.56-12.954 5.325-19.251 8.295l-9.319 4.608c-2.97 1.536-6.246 3.277-8.499 4.608l-28.672 16.384-5.325-31.744-7.68-46.746 31.437 16.077c-6.912 3.584-14.029 6.81-20.787 10.752-6.81 3.84-13.62 7.68-20.275 11.878-6.759 3.994-13.159 8.55-19.712 12.903-6.451 4.608-12.954 9.113-19.098 14.08-12.493 9.728-24.576 19.968-36.045 30.925-5.734 5.427-11.264 11.059-16.742 16.742l-7.936 8.653a187.08 187.08 0 00-7.27 8.499l-14.234 17.254-14.848-15.206-14.336-14.694 29.491-3.584c-3.328 5.836-7.168 11.366-10.24 17.51l-4.608 9.114-4.198 9.37c-1.536 3.071-2.663 6.348-3.943 9.574-1.177 3.225-2.56 6.4-3.584 9.728-2.304 6.553-4.505 13.158-6.297 19.968-2.048 6.656-3.584 13.516-5.12 20.377-1.536 6.861-2.867 13.824-4.096 20.736-1.024 6.963-2.202 13.927-3.072 20.992-.359 3.43-.768 6.912-1.024 10.394-.359 3.43-.615 7.168-.768 10.24l-1.024 17.766-16.128-3.84-28.672-6.81 15.77-13.823.921 16.486c.512 5.478.512 11.008 1.178 16.486 1.33 10.957 2.048 22.016 3.737 33.024l2.355 16.487 3.072 16.281c1.024 5.479 2.048 10.906 3.43 16.384l3.79 16.18 4.454 16.076c1.434 5.428 3.328 10.752 4.915 16.026 1.536 5.427 3.43 10.752 5.325 15.872 1.843 5.376 3.789 10.598 5.94 15.77a514.298 514.298 0 0013.311 30.873c4.915 10.138 10.138 20.173 16.128 29.696-7.27-8.55-13.721-17.92-19.968-27.443-6.041-9.574-11.93-19.456-17.1-29.542-2.765-5.018-5.274-10.087-7.68-15.258-2.56-5.12-5.018-10.342-7.169-15.616-2.252-5.222-4.71-10.445-6.656-15.77l-6.144-16.076-5.478-16.282a256.212 256.212 0 01-5.12-16.486l-4.608-16.538-3.891-16.794c-1.383-5.632-2.663-11.212-3.584-16.896l-2.97-16.896c-1.126-5.734-1.536-11.468-2.406-17.152l-2.202-17.152-2.15-16.896 17.92 3.072 29.184 4.762-17.05 14.029c-.102-4.301 0-7.987 0-11.879 0-3.788.256-7.68.41-11.417a412.25 412.25 0 011.843-22.733c.87-7.526 1.894-15.053 3.226-22.528 1.228-7.526 2.662-15.053 4.403-22.528 1.638-7.424 3.686-14.848 5.837-22.272.921-3.738 2.355-7.322 3.481-11.008 1.229-3.686 2.355-7.373 3.84-10.957l4.25-10.905 4.864-10.752c3.072-7.168 7.27-13.978 10.905-20.992l10.957-21.095 18.586 17.562 14.95 14.08-29.081 2.048c3.072-3.891 5.632-7.168 8.499-10.496 2.765-3.38 5.632-6.656 8.499-9.83a470.228 470.228 0 0117.715-18.74c12.032-12.288 24.73-23.859 38.042-34.816 6.553-5.53 13.517-10.65 20.326-15.872 7.066-5.12 13.927-10.24 21.248-14.848 7.168-4.915 14.592-9.42 22.17-13.721 7.424-4.455 15.36-8.192 23.04-12.288l26.01-14.08 5.427 30.208 8.499 46.592-33.997-15.36c4.25-2.458 7.475-4.301 11.162-6.144a215.253 215.253 0 0110.854-5.479c7.168-3.43 14.54-6.553 22.016-9.574a376.768 376.768 0 0122.426-8.09c3.788-1.331 7.68-2.355 11.468-3.584 3.79-1.126 7.68-2.048 11.572-3.072 3.89-.921 7.68-2.048 11.776-2.816l11.776-2.355c3.942-.717 7.936-1.178 11.93-1.792 3.993-.614 7.986-1.024 12.082-1.382l12.084-1.024 12.185-.256c8.09-.41 16.384.512 24.474.665l24.217.666-3.584 24.883-5.888 40.96-22.528-25.395c4.404 0 7.783.102 11.572.307l11.008.614c7.321.512 14.54 1.332 21.76 2.253 14.438 1.895 28.825 4.608 43.008 8.192 14.336 3.738 28.416 8.602 42.188 14.695 13.824 6.144 27.136 13.619 39.732 22.937l23.808 17.664-24.27 16.18-35.327 23.551-6.656-36.096c5.273 1.383 8.397 2.56 12.288 4.096a250.152 250.152 0 0110.752 4.916c6.912 3.43 13.568 7.372 19.968 11.673 12.8 8.602 24.269 19.047 34.201 30.72 9.933 11.623 18.279 24.576 24.832 38.247 3.277 6.86 6.144 13.824 8.55 20.992 2.458 7.014 4.404 14.233 6.145 21.504l4.25 17.664-17.409 2.457-30.31 4.352 10.65-23.296c2.304 4.199 3.686 7.322 5.273 10.957 1.536 3.482 2.97 6.963 4.25 10.496a326.962 326.962 0 016.912 21.094c2.048 7.168 3.84 14.183 5.325 21.35 1.638 7.169 2.764 14.337 3.993 21.505 1.024 7.168 2.048 14.438 2.714 21.657.819 7.168 1.229 14.336 1.536 21.607.512 7.168.205 14.438.358 21.606-.102 7.168-.41 14.336-.614 21.504l-.359 12.288-11.161-3.43-22.272-6.963 10.24-6.861c-.717 3.737-1.536 6.553-2.407 9.728-.87 3.072-1.792 6.144-2.816 9.062-1.945 5.94-4.3 11.776-6.656 17.51-4.864 11.367-10.342 22.426-16.179 33.28-5.837 10.855-12.288 21.3-18.944 31.54a593.33 593.33 0 01-21.145 29.952z" fill="#472D1C"/><path d="M784.64 520.704c-13.312-16.896-21.504-38.144-22.426-61.082-.102-3.174-.256-6.4-.512-9.574-.512-3.38-1.536-8.55-2.048-10.854-.512-1.946-1.894-5.735-3.276-9.728-18.944-3.738-36.506-13.005-50.176-26.727-5.632-5.53-10.24-11.776-14.336-18.33-4.864-.819-22.836-3.174-21.504-3.276-17.152-1.434-34.304-2.253-51.405-2.355-93.03-.768-186.061-.154-279.04-.103-15.155 13.568-34.304 22.63-55.399 24.679-3.225 10.086-6.144 20.275-9.216 30.412-8.704 28.16-18.073 58.266-36.044 81.92 0 .103-.103.154-.154.205 12.698 16.487 20.378 36.864 20.378 58.88 0 7.373-.922 14.541-2.56 21.504 3.584 3.84 7.014 7.936 9.984 12.288-.256-36.761 4.812-133.376 63.488-162.816 29.542-14.848 76.544 6.554 180.428 6.554 116.378 0 163.328-17.05 189.952 3.84 24.32 19.097 54.784 47.616 50.688 156.006 2.919-11.776 8.09-22.681 14.848-32.41l-.102-2.918c0-20.838 6.912-40.243 18.432-56.217z" fill="#39291C"/><path d="M678.4 584.858c0 32.256-26.112 58.521-58.47 58.521-32.256 0-58.522-26.214-58.522-58.521h117.043z" fill="#FFF"/><path d="M679.936 580.608c0 33.126-26.88 59.904-60.006 59.904-33.076 0-59.904-26.778-59.904-59.904s26.828-59.904 59.904-59.904c33.126 0 59.904 26.829 59.904 59.904z" fill="#E0AF7E"/><path d="M619.93 635.392c-30.208 0-54.682-24.576-54.682-54.784s24.576-54.682 54.682-54.682c30.208 0 54.784 24.576 54.784 54.682s-24.576 54.784-54.784 54.784z" fill="#E0EEF4"/><path d="M619.93 531.354c27.136 0 49.305 22.016 49.305 49.254 0 27.136-22.016 49.306-49.254 49.306-27.136 0-49.255-22.119-49.255-49.306 0-27.136 22.119-49.254 49.255-49.254z" fill="#F1F7FC"/><path d="M619.93 535.91c24.678 0 44.697 20.07 44.697 44.698 0 24.576-19.968 44.698-44.646 44.698-24.576 0-44.647-20.07-44.647-44.698 0-24.576 19.968-44.698 44.647-44.698z" fill="#FFF"/><path d="M619.93 611.328c-16.896 0-30.72-13.824-30.72-30.72s13.824-30.72 30.72-30.72c16.998 0 30.72 13.824 30.72 30.72s-13.824 30.72-30.72 30.72z" fill="#6B4A37"/><path d="M619.93 598.22a17.613 17.613 0 110-35.225c9.728 0 17.664 7.885 17.664 17.613s-7.936 17.613-17.664 17.613z" fill="#252324"/><path d="M612.71 566.784c0 2.048-1.69 3.738-3.737 3.738-2.048 0-3.584-1.639-3.584-3.687s1.536-3.686 3.584-3.686 3.737 1.69 3.737 3.737zm26.624 24.576a6.13 6.13 0 01-6.144 6.144 6.13 6.13 0 01-6.144-6.144c0-3.328 2.765-6.144 6.144-6.144 3.38 0 6.144 2.816 6.144 6.144zM341.658 586.138c0 32.256 26.214 58.521 58.521 58.521 32.256 0 58.522-26.112 58.522-58.47H341.606z" fill="#FFF"/><path d="M340.224 581.888c0 33.075 26.88 59.904 59.904 59.904 33.126 0 59.904-26.778 59.904-59.904s-26.778-59.904-59.904-59.904c-33.024 0-59.904 26.829-59.904 59.904z" fill="#E0AF7E"/><path d="M400.18 636.62c30.207 0 54.68-24.575 54.68-54.783 0-30.106-24.575-54.682-54.68-54.682-30.209 0-54.785 24.576-54.785 54.784 0 30.106 24.576 54.682 54.784 54.682z" fill="#E0EEF4"/><path d="M400.18 532.582c-27.137 0-49.306 22.119-49.306 49.306 0 27.136 22.118 49.306 49.305 49.306 27.136 0 49.306-22.119 49.306-49.306 0-27.136-22.17-49.306-49.357-49.306z" fill="#F1F7FC"/><path d="M400.18 537.19c-24.577 0-44.698 20.07-44.698 44.698 0 24.576 20.07 44.698 44.697 44.698 24.576 0 44.647-20.07 44.647-44.698 0-24.576-19.968-44.698-44.647-44.698z" fill="#FFF"/><path d="M400.18 612.608c16.895 0 30.72-13.824 30.72-30.72s-13.825-30.72-30.72-30.72-30.72 13.824-30.72 30.72 13.823 30.72 30.72 30.72z" fill="#6B4A37"/><path d="M400.18 599.552c9.727 0 17.612-7.936 17.612-17.664 0-9.728-7.885-17.664-17.613-17.664s-17.613 7.936-17.613 17.664c0 9.728 7.885 17.613 17.613 17.613z" fill="#252324"/><path d="M407.45000000000005 568.115a3.686 3.686 0 107.372 0 3.686 3.686 0 10-7.372 0zM380.826 592.691a6.13 6.13 0 006.144 6.144c3.328 0 6.144-2.765 6.144-6.144s-2.816-6.144-6.144-6.144a6.13 6.13 0 00-6.144 6.144z" fill="#FFF"/><path d="M659.456 507.392c-1.126-.614-3.072-1.178-5.427-2.048-2.355-.922-5.223-2.048-8.55-2.765-6.503-1.945-14.695-2.97-22.682-3.584-16.128-.768-31.437 2.56-34.1 3.072-5.631.922-13.567 3.943-17.92-4.608-2.406-4.352 1.946-8.704 8.705-11.622 6.656-3.072 15.564-4.403 22.016-4.762 6.45-.614 20.582-.205 33.69 3.175 3.276.921 6.502 1.69 9.522 2.713l8.397 3.226a175.33 175.33 0 0111.162 5.632c4.096 2.765 8.704 5.273 11.776 8.704 3.072 3.174 5.12 6.144 4.71 8.55-1.024 4.762-12.134-2.048-21.35-5.837zM360.704 508.16c1.024-.512 3.072-1.126 5.376-2.048 2.355-.82 5.222-1.946 8.55-2.662 6.503-2.048 14.695-3.072 22.682-3.584 16.128-.82 31.437 2.56 34.1 3.072 5.631.87 13.618 3.89 17.92-4.608 2.406-4.352-1.946-8.704-8.705-11.623-6.656-3.072-15.565-4.352-22.016-4.761-6.502-.512-20.582-.154-33.69 3.225-3.276.922-6.502 1.69-9.523 2.765l-8.448 3.226c-5.017 2.304-8.96 4.403-11.11 5.632-4.096 2.713-8.704 5.273-11.776 8.601-3.072 3.277-5.12 6.247-4.71 8.704 1.024 4.762 12.134-2.048 21.35-5.888z" fill="#39291C"/><path d="M510.464 824.422c-46.592 0-76.646-20.736-93.542-38.144-19.712-20.224-32.41-47.513-32.41-69.427 0-21.401 17.408-23.91 30.566-23.91 1.434 0 2.868 0 4.352.102 9.063.359 19.456 1.639 31.437 3.072 17.767 2.202 37.888 4.71 59.546 4.71 21.504 0 41.677-2.56 59.392-4.71 10.752-1.28 20.787-2.56 29.389-2.97 2.304-.102 4.454-.204 6.45-.204 13.108 0 30.618 2.56 30.618 23.961 0 22.221-12.544 49.05-32.46 69.479-16.896 17.408-46.9 38.144-93.44 38.144z" fill="#DE9C67"/><path d="M631.706 717.312c0 18.586-10.24 44.954-31.13 66.355-20.173 20.736-50.176 36.762-90.112 36.762s-70.144-16.026-90.266-36.762c-20.838-21.401-31.078-47.718-31.078-66.355 0-17.152 11.674-20.992 30.925-20.378h.205c22.22.87 54.374 7.68 90.112 7.68 34.713 0 66.048-6.4 88.064-7.577h.204c20.48-1.024 33.076 2.56 33.076 20.224z" fill="#4E1821"/><path d="M420.557 696.832s0 .614.205 1.536c.921 5.376 5.12 23.757 19.353 28.16 12.032 3.789 41.882 10.65 86.016 8.602 17.203-.82 33.28-1.332 53.555-7.936 23.962-7.783 21.3-30.208 21.3-30.208s-3.43-1.434-42.087 4.352c-18.125 2.713-21.401 2.15-35.584 3.225-9.011.666-48.947-1.843-48.947-1.843l-53.76-5.786zM555.52 823.654c-12.493 5.632-27.494 9.37-45.056 9.37s-32.768-3.738-45.26-9.37c-8.91-3.993-8.04-6.144 1.023-2.97 12.647 4.2 27.341 6.913 44.186 6.913 17.1 0 32.051-2.816 44.902-7.27 8.704-3.073 9.216-.717.205 3.276z" fill="#FFF"/><path d="M510.464 755.405l-1.74-.82c-7.68-3.583-40.96-15.667-78.849 18.177 0 0-7.168 8.704 8.704 19.148s43.52 23.757 78.746 21.71 71.321-22.017 75.008-31.591-12.954-20.327-22.016-23.757-32.768-13.414-59.904-2.867z" fill="#8C2331"/><path d="M659.456 511.898c-1.126-.512-3.072-1.127-5.427-2.048-2.355-.82-5.223-1.946-8.55-2.663-6.503-2.048-14.695-3.072-22.682-3.584-16.128-.819-31.437 2.56-34.1 3.072-5.631.87-13.567 3.891-17.92-4.608-2.406-4.403 1.946-8.704 8.705-11.622 6.656-3.072 15.564-4.455 22.016-4.813 6.45-.512 20.582-.154 33.69 3.174 3.276 1.024 6.502 1.741 9.522 2.765l8.397 3.226a175.33 175.33 0 0111.162 5.632c4.096 2.765 8.704 5.325 11.776 8.704 3.072 3.174 5.12 6.144 4.71 8.499-1.024 4.864-12.134-1.894-21.35-5.734zM360.704 512.768c1.024-.614 3.072-1.126 5.376-2.048 2.355-.87 5.222-1.946 8.55-2.714 6.503-1.945 14.695-3.072 22.682-3.584 16.128-.768 31.437 2.56 34.1 3.072 5.631.922 13.618 3.943 17.92-4.608 2.406-4.352-1.946-8.704-8.705-11.622-6.656-2.97-15.565-4.352-22.016-4.71-6.502-.615-20.582-.205-33.69 3.174-3.276.922-6.502 1.74-9.523 2.765-2.97 1.024-5.836 2.201-8.448 3.174-5.017 2.355-8.96 4.403-11.11 5.632-4.096 2.714-8.704 5.274-11.776 8.704-3.072 3.072-5.12 6.144-4.71 8.5 1.024 4.812 12.134-1.946 21.35-5.786z" fill="#39291C"/><path d="M770.304 457.011c-6.144-.717-12.288-1.433-18.586-2.355-20.89-2.97-57.856-5.837-84.992-7.014-66.252-2.868-132.608-1.792-199.014-2.714-66.765-.922-133.53-2.15-200.294.154-11.162.358-22.324.921-33.485 1.433-1.383.154-2.663.154-3.943.256 2.048 8.55 2.356 17.306.922 25.805 55.808 8.038 140.8 7.168 275.968 7.168h7.066c126.822-.102 209.408.82 265.113-5.786-3.686-5.222-6.656-10.905-8.704-16.896z" fill="#040000"/><path d="M254.464 124.006c-61.85 65.69-99.994 158.362-99.994 268.954 0 9.011.308 18.022.768 26.88 69.018-20.07 199.015-33.536 348.058-33.536 154.214 0 288.102 14.438 355.02 35.635.513-9.523.871-19.2.871-28.928 0-120.32-45.056-219.494-116.736-285.696-67.993-38.81-146.585-60.928-230.4-60.928-95.232 0-183.808 28.57-257.536 77.67z" fill="#F5D031"/><path d="M506.88 467.302c-221.184 0-307.814 2.765-352.41-36.352-27.545-24.268 134.656-52.838 355.943-52.838 221.184 0 383.385 28.57 355.84 52.736-44.544 39.22-131.072 36.454-352.359 36.454h-7.168z" fill="#F4BF31"/><path d="M154.931 413.44s10.65-3.174 29.389-8.294c9.472-2.048 20.992-4.71 34.202-7.68 13.312-2.56 28.313-5.632 44.8-8.192 16.486-2.304 34.304-5.53 53.248-7.373l29.286-3.38c9.933-1.126 20.173-1.74 30.566-2.56 20.788-1.894 42.292-3.071 64.154-3.993 21.914-.87 44.032-1.024 66.458-1.331l33.177.614c11.06.103 22.119.512 33.075 1.024 21.914.922 43.52 2.355 64.205 4.25 20.787 1.536 40.807 3.993 59.802 6.297 18.944 2.048 36.761 5.325 53.248 7.68 16.384 2.816 31.437 5.94 44.697 8.55l34.202 8.04c18.688 5.375 29.286 8.703 29.286 8.703s-10.956-2.048-29.9-5.837l-34.51-5.376-44.902-5.53-25.753-2.56c-8.858-.92-18.023-1.894-27.495-2.56-18.944-1.535-38.912-3.071-59.545-4.249-10.343-.512-20.839-1.382-31.488-1.74l-32.256-1.178c-21.504-1.127-43.827-.717-65.946-1.178-21.913.154-44.134.103-65.843.82-21.709.921-43.11 1.177-63.744 2.56-20.736 1.023-40.704 2.457-59.648 3.942-9.472.614-18.637 1.536-27.546 2.406l-25.753 2.407-44.954 5.12c-13.312 1.945-24.934 3.584-34.509 5.12-19.046 3.584-30.003 5.376-30.003 5.376z" fill="#C08139"/><path d="M441.344 51.712l29.338 233.83c6.041 26.778 66.048 26.778 72.192 0l29.542-235.366c-19.763-2.56-39.936-3.84-60.416-3.84-24.064 0-47.616 1.792-70.656 5.325z" fill="#F4BF31"/></svg>