<svg class="icon" viewBox="0 0 1024 1024" xmlns="http://www.w3.org/2000/svg" width="30" height="30"><defs><style/></defs><path d="M0 512a512 512 0 101024 0A512 512 0 100 512z" fill="#9AF4EF"/><path d="M20.48 655.36c167.253-6.827 692.907-34.133 996.693-51.2C1024 573.44 1024 542.72 1024 512s-3.413-58.027-6.827-88.747C747.52 433.493 249.173 481.28 0 525.653 0 570.027 6.827 614.4 20.48 655.36z" fill="#FFFFF4"/><path d="M17.067 641.707c201.386 3.413 744.106 3.413 989.866 3.413 10.24-40.96 17.067-85.333 17.067-129.707-300.373 3.414-849.92 20.48-1020.587 44.374 0 27.306 6.827 54.613 13.654 81.92z" fill="#FFFFF4"/><path d="M300.373 296.96c0-23.893 17.067-40.96 40.96-40.96h10.24c10.24-10.24 27.307-17.067 44.374-17.067 30.72 0 58.026 27.307 58.026 58.027h-153.6zm-40.96-139.947c0-20.48 13.654-34.133 34.134-34.133h6.826c10.24-10.24 20.48-17.067 34.134-17.067 27.306 0 47.786 20.48 47.786 47.787h-122.88zm597.334 235.52c0-13.653 10.24-23.893 23.893-23.893h6.827c6.826-6.827 17.066-10.24 27.306-10.24 20.48 0 37.547 17.067 37.547 37.547l-95.573-3.414zm-116.054-102.4c0-20.48 13.654-34.133 34.134-34.133h6.826c10.24-10.24 20.48-17.067 34.134-17.067 27.306 0 47.786 20.48 47.786 47.787h-122.88z" fill="#FFF"/><path d="M331.093 252.587c-3.413 0-10.24 0-13.653 3.413-13.653-20.48-37.547-34.133-64.853-34.133s-47.787 10.24-64.854 30.72c-3.413 0-10.24-3.414-13.653-3.414-23.893 3.414-44.373 23.894-44.373 47.787h245.76c0-23.893-20.48-44.373-44.374-44.373zm409.6 3.413c-3.413 0-6.826 0-10.24 3.413a59.733 59.733 0 00-95.573 0c-3.413 0-6.827-3.413-10.24-3.413-20.48 0-34.133 17.067-34.133 34.133h184.32C778.24 273.067 761.173 256 740.693 256zM860.16 368.64h-6.827c-6.826-10.24-20.48-17.067-34.133-17.067s-27.307 6.827-34.133 17.067h-6.827c-13.653 0-23.893 10.24-23.893 23.893h133.12c0-13.653-13.654-23.893-27.307-23.893zM563.2 146.773c0-23.893 20.48-44.373 44.373-44.373h10.24c10.24-13.653 27.307-20.48 47.787-20.48 34.133 0 64.853 27.307 64.853 64.853H563.2z" fill="#FFF"/><path d="M3.413 573.44C34.133 826.027 249.173 1024 512 1024s477.867-197.973 508.587-450.56H3.413z" fill="#B0EB81"/><path d="M614.4 259.413l-23.893-30.72c-6.827-10.24-20.48-10.24-27.307 0l-23.893 30.72-34.134 259.414h143.36L614.4 259.413z" fill="#C4B478"/><path d="M566.613 228.693H563.2l-23.893 30.72-34.134 259.414H624.64l-34.133-259.414-23.894-30.72z" fill="#BCA077"/><path d="M648.533 552.96H501.76v-102.4s0-3.413 3.413-3.413h143.36s3.414 0 3.414 3.413v102.4z" fill="#8C665B"/><path d="M576.853 471.04c-17.066 0-27.306 13.653-27.306 27.307v51.2h58.026v-51.2c-3.413-13.654-17.066-27.307-30.72-27.307z" fill="#674447"/><path d="M426.667 382.293l40.96 40.96c10.24 10.24 23.893 6.827 30.72-3.413l78.506-146.773-146.773 81.92c-10.24 6.826-13.653 20.48-3.413 27.306zm300.373 0l-40.96 40.96c-10.24 10.24-23.893 6.827-30.72-3.413l-78.507-146.773 146.774 81.92c10.24 6.826 13.653 20.48 3.413 27.306zm0-221.866l-40.96-40.96c-10.24-10.24-23.893-6.827-30.72 3.413l-78.507 150.187 146.774-81.92c10.24-6.827 13.653-20.48 3.413-30.72zm-300.373 0l40.96-40.96c10.24-10.24 23.893-6.827 30.72 3.413l78.506 150.187-146.773-81.92c-10.24-6.827-13.653-20.48-3.413-30.72z" fill="#8C665B"/><path d="M552.96 273.067a23.893 23.893 0 1047.787 0 23.893 23.893 0 10-47.787 0z" fill="#8C665B"/><path d="M870.4 699.733c-3.413 0-10.24-3.413-10.24-10.24V593.92c0-3.413 3.413-10.24 10.24-10.24 3.413 0 10.24 3.413 10.24 10.24v95.573c0 3.414-3.413 10.24-10.24 10.24z" fill="#674447"/><path d="M928.427 587.093c0 30.72-23.894 54.614-54.614 54.614S819.2 617.813 819.2 587.093s23.893-122.88 54.613-122.88 54.614 92.16 54.614 122.88z" fill="#43AB5F"/><path d="M870.4 464.213c-6.827 0-13.653 6.827-20.48 13.654 27.307 0 51.2 85.333 51.2 112.64 0 23.893-17.067 44.373-40.96 47.786h10.24c30.72 0 54.613-23.893 54.613-54.613 3.414-27.307-23.893-119.467-54.613-119.467z" fill="#71BE63"/><path d="M180.907 631.467c-3.414 0-10.24-3.414-10.24-6.827v-71.68c0-3.413 3.413-6.827 10.24-6.827s10.24 3.414 10.24 6.827v71.68c0 3.413-3.414 6.827-10.24 6.827z" fill="#674447"/><path d="M228.693 532.48c0 37.547-20.48 54.613-47.786 54.613s-47.787-17.066-47.787-54.613 30.72-177.493 47.787-177.493 47.786 139.946 47.786 177.493z" fill="#43AB5F"/><path d="M180.907 351.573c-3.414 0-6.827 6.827-10.24 13.654C184.32 389.12 204.8 501.76 204.8 532.48s-13.653 47.787-30.72 51.2h10.24c27.307 0 47.787-17.067 47.787-54.613s-30.72-177.494-51.2-177.494z" fill="#71BE63"/><path d="M310.613 587.093c-6.826 0-10.24-6.826-10.24-10.24v-122.88c0-6.826 6.827-10.24 10.24-10.24 6.827 0 10.24 6.827 10.24 10.24v122.88c0 6.827-3.413 10.24-10.24 10.24z" fill="#674447"/><path d="M382.293 443.733c0 40.96-30.72 71.68-71.68 71.68s-71.68-34.133-71.68-71.68 30.72-163.84 71.68-163.84 71.68 122.88 71.68 163.84z" fill="#43AB5F"/><path d="M310.613 279.893c-10.24 0-20.48 6.827-27.306 20.48 37.546 0 64.853 112.64 64.853 150.187 0 30.72-23.893 58.027-51.2 64.853h13.653c40.96 0 71.68-30.72 71.68-71.68 0-40.96-30.72-163.84-71.68-163.84zm-286.72 389.12C92.16 873.813 283.307 1024 512 1024c221.867 0 409.6-139.947 481.28-337.92C771.413 675.84 696.32 494.933 512 494.933c-238.933 0-317.44 163.84-488.107 174.08z" fill="#71BE63"/><path d="M993.28 686.08C771.413 675.84 696.32 494.933 512 494.933h-34.133c204.8 13.654 296.96 252.587 447.146 314.027 30.72-34.133 51.2-78.507 68.267-122.88z" fill="#94D75B"/><path d="M51.2 733.867C133.12 904.533 307.2 1024 512 1024c136.533 0 259.413-51.2 351.573-139.947C539.307 866.987 450.56 645.12 51.2 733.867z" fill="#43AB5F"/><path d="M501.76 778.24c27.307 10.24 51.2 23.893 78.507 34.133C692.907 716.8 822.613 645.12 744.107 593.92l-44.374-30.72c129.707 81.92-40.96 136.533-197.973 215.04z" fill="#C4B478"/><path d="M109.227 829.44c44.373 58.027 102.4 105.813 167.253 136.533 3.413-92.16 58.027-153.6 129.707-225.28-34.134-10.24-71.68-20.48-112.64-23.893-64.854 17.067-139.947 58.027-184.32 112.64z" fill="#BCA077"/><path d="M747.52 593.92l-44.373-30.72c51.2 30.72 54.613 58.027 34.133 85.333 6.827 6.827 10.24 13.654 17.067 17.067 20.48-27.307 23.893-51.2-6.827-71.68z" fill="#CCBE84"/><path d="M68.267 768c88.746 153.6 256 256 443.733 256 54.613 0 109.227-10.24 157.013-23.893C522.24 928.427 314.027 686.08 68.267 768z" fill="#3C9B61"/><path d="M204.8 754.347c-37.547 20.48-68.267 44.373-95.573 75.093 3.413 3.413 6.826 6.827 6.826 10.24 6.827 6.827 13.654 13.653 20.48 23.893 3.414 3.414 6.827 6.827 6.827 10.24l13.653 13.654 6.827 6.826 13.653 13.654 6.827 6.826c10.24 0 17.067 3.414 20.48 6.827l3.413 3.413c20.48 17.067 44.374 30.72 68.267 40.96 0-64.853 30.72-116.053 75.093-167.253C307.2 774.827 256 757.76 204.8 754.347z" fill="#AD9172"/></svg>