<svg class="icon" viewBox="0 0 1024 1024" xmlns="http://www.w3.org/2000/svg" width="30" height="30"><defs><style/></defs><path d="M0 512a512 512 0 101024 0A512 512 0 100 512z" fill="#FAE268"/><path d="M130.202 570.88a53.658 53.658 0 1072.704-21.709 53.658 53.658 0 00-72.704 21.709zm0 0" fill="#FFB000"/><path d="M246.63 713.882L104.96 637.44a17.818 17.818 0 01-7.22-24.218l19.098-35.379 4.455.41a22.323 22.323 0 0019.61-36.301l-2.817-3.482 19.15-35.379a17.869 17.869 0 0124.217-7.27l141.619 76.493a17.92 17.92 0 017.168 24.166l-19.098 35.38-4.454-.462a22.426 22.426 0 00-19.66 36.352l2.815 3.43-19.097 35.431a17.869 17.869 0 01-24.218 7.22zM124.57 591.718l-15.002 27.802a4.71 4.71 0 00-.358 3.43 4.66 4.66 0 002.15 2.663l141.62 76.493a4.557 4.557 0 006.092-1.844l15.002-27.801a35.84 35.84 0 0129.44-54.528l15.001-27.802a4.454 4.454 0 00-1.792-6.041l-141.619-76.493a4.3 4.3 0 00-3.38-.359 4.66 4.66 0 00-2.662 2.15l-15.001 27.802a35.84 35.84 0 01-29.491 54.528zm0 0" fill="#3E424E"/><path d="M205.056 541.542l11.776 6.35-10.598 19.711-11.776-6.4zm-16.998 31.488l11.776 6.35-10.599 19.66-11.776-6.349zm-16.999 31.437l11.776 6.4-10.598 19.661-11.776-6.4zm0 0z" fill="#3E424E"/><path d="M423.578 183.5c-59.341 32.36-102.4 84.737-116.173 149.351a94.822 94.822 0 11116.173-149.35zM887.45 329.934a94.72 94.72 0 01-65.28 90.112c6.758-64.666-17.767-128-63.898-178.432a93.542 93.542 0 0134.355-6.451 94.822 94.822 0 0194.823 94.77z" fill="#5A251F"/><path d="M844.902 442.88c-.512 5.99-1.433 11.878-2.56 17.92-25.344 131.072-172.595 212.838-328.908 182.63s-262.35-160.972-237.005-291.84c0-1.075.41-2.201.665-3.276 13.568-64.615 56.781-116.941 116.122-149.35s134.554-45.006 212.02-30.055a319.437 319.437 0 01175.82 95.744c46.131 49.92 70.605 113.459 63.846 178.227z" fill="#FFFDFD"/><path d="M667.258 462.709a78.848 68.762 56.06 10114.092-76.783 78.848 68.762 56.06 10-114.092 76.783zM337.27 414.329a67.789 79.718 54.28 10129.444-93.083 67.789 79.718 54.28 10-129.444 93.083zM547.328 485.248a34.304 22.477 7.65 105.985-44.553 34.304 22.477 7.65 10-5.985 44.553z" fill="#4F2114"/><path d="M364.08299999999997 383.027a11.366 11.366 0 1022.733 0 11.366 11.366 0 10-22.733 0zM705.434 443.75a11.366 11.366 0 1022.732 0 11.366 11.366 0 10-22.732 0z" fill="#FFFDFD"/><path d="M397.978 598.784a17.254 17.254 0 00-14.439-4.198c-29.593 8.294-110.49 27.392-102.912 65.33 5.12 25.908 45.415 24.167 57.293 23.143a3.123 3.123 0 013.43 3.123v26.83s-11.57 132.556 30.31 174.438c3.329 3.328 3.738 12.441 3.175 21.657a33.331 33.331 0 0021.607 33.178l9.42 3.533a37.786 37.786 0 0043.47-12.698 17.46 17.46 0 0115.36-7.014c25.138 1.894 92.16 6.86 104.191 6.86a8.397 8.397 0 018.039 4.301 32.358 32.358 0 0032.204 15.36l14.695-1.485a31.642 31.642 0 0028.518-31.488v-7.73a2.97 2.97 0 011.075-2.407c8.192-6.759 58.368-51.968 44.442-135.68-15.36-91.034 41.83 20.48 60.672-7.578 30.31-45.517-62.566-109.158-79.667-125.389a13.62 13.62 0 00-8.858-3.737c-17.05-.563-74.445 12.39-132.505 7.014-61.748-5.939-127.898-37.427-139.52-45.363z" fill="#512414"/><path d="M394.394 781.26a128.973 91.034 0 10257.945 0 128.973 91.034 0 10-257.945 0z" fill="#FFF"/></svg>